<svg width="34" height="33" viewBox="0 0 34 33" fill="none" xmlns="http://www.w3.org/2000/svg">
<path d="M33.6814 11.7859C33.6814 22.4131 27.9097 32.7119 16.0495 32.7119C4.18937 32.7119 0 28.6668 0 18.0396C0 7.41242 5.54567 0 17.4058 0C29.266 0 33.6814 1.15868 33.6814 11.7859Z" fill="#9052F5"/>
<g clip-path="url(#clip0_3_18)">
<path d="M10.0615 9.48645C9.23421 9.48645 8.56299 10.2557 8.56299 11.2038C8.56299 11.7441 8.78465 12.2521 9.1624 12.5777L15.9558 18.4168C16.3117 18.7209 16.7987 18.7209 17.1546 18.4168L23.948 12.5777C24.3257 12.2521 24.5474 11.7441 24.5474 11.2038C24.5474 10.2557 23.8762 9.48645 23.0489 9.48645H10.0615ZM8.56299 13.4937V20.9356C8.56299 22.1986 9.45899 23.2254 10.561 23.2254H22.5493C23.6514 23.2254 24.5474 22.1986 24.5474 20.9356V13.4937L17.754 19.3327C17.0422 19.9445 16.0682 19.9445 15.3564 19.3327L8.56299 13.4937Z" fill="white"/>
</g>
<defs>
<clipPath id="clip0_3_18">
<rect width="15.9844" height="18.3186" fill="white" transform="translate(8.56299 7.19666)"/>
</clipPath>
</defs>
</svg>
